<svg xmlns="http://www.w3.org/2000/svg" viewBox="0 0 1280 720" width="1280" height="720">
  <defs>
    <linearGradient id="bgGrad" x1="0%" y1="0%" x2="100%" y2="100%">
      <stop offset="0%" stop-color="#0a0f1d" />
      <stop offset="50%" stop-color="#0e172a" />
      <stop offset="100%" stop-color="#060913" />
    </linearGradient>
    <linearGradient id="cyanGlow" x1="0%" y1="0%" x2="100%" y2="0%">
      <stop offset="0%" stop-color="#38bdf8" />
      <stop offset="100%" stop-color="#818cf8" />
    </linearGradient>
    <linearGradient id="amberGlow" x1="0%" y1="0%" x2="100%" y2="0%">
      <stop offset="0%" stop-color="#f59e0b" />
      <stop offset="100%" stop-color="#ef4444" />
    </linearGradient>
    <linearGradient id="greenGlow" x1="0%" y1="0%" x2="100%" y2="0%">
      <stop offset="0%" stop-color="#10b981" />
      <stop offset="100%" stop-color="#06b6d4" />
    </linearGradient>
    <filter id="glow" x="-20%" y="-20%" width="140%" height="140%">
      <feGaussianBlur stdDeviation="6" result="blur" />
      <feComposite in="SourceGraphic" in2="blur" operator="over" />
    </filter>
    <pattern id="gridPattern" width="32" height="32" patternUnits="userSpaceOnUse">
      <path d="M 32 0 L 0 0 0 32" fill="none" stroke="rgba(255,255,255,0.03)" stroke-width="1" />
    </pattern>
  </defs>

  <!-- Background Base -->
  <rect width="1280" height="720" fill="url(#bgGrad)" />
  <rect width="1280" height="720" fill="url(#gridPattern)" />

  <!-- App Window Frame -->
  <rect x="24" y="24" width="1232" height="672" rx="12" fill="#0b111e" stroke="rgba(120, 188, 235, 0.22)" stroke-width="1.5" />

  <!-- Window Titlebar -->
  <rect x="24" y="24" width="1232" height="46" rx="12" fill="#080c16" />
  <rect x="24" y="58" width="1232" height="12" fill="#080c16" />
  <line x1="24" y1="70" x2="1256" y2="70" stroke="rgba(255,255,255,0.08)" stroke-width="1" />

  <!-- Window Dots -->
  <circle cx="48" cy="47" r="6" fill="#ef4444" />
  <circle cx="68" cy="47" r="6" fill="#f59e0b" />
  <circle cx="88" cy="47" r="6" fill="#10b981" />

  <!-- Titlebar text -->
  <text x="120" y="52" font-family="'Fira Code', monospace" font-size="13" font-weight="600" fill="#94a3b8" letter-spacing="1">G1_SIMPLIFIED // LOGIC BENCHMARK EVALUATION</text>
  <text x="640" y="52" font-family="'Plus Jakarta Sans', sans-serif" font-size="12" fill="#64748b" text-anchor="middle">Comparing Raw Foundation Models vs G1 Recursive Thinking Passes</text>

  <!-- Titlebar Badge -->
  <rect x="1100" y="37" width="136" height="22" rx="11" fill="#10b98122" stroke="#10b98188" stroke-width="1" />
  <text x="1168" y="52" font-family="'Fira Code', monospace" font-size="10" font-weight="600" fill="#10b981" text-anchor="middle">+32% ACCURACY</text>

  <!-- Main Viewport Content -->
  <g transform="translate(24, 70)">
    
    <g transform="translate(30, 20)">
      <rect x="0" y="0" width="1160" height="540" rx="12" fill="#0f172a" stroke="rgba(255, 255, 255, 0.08)" />
      <text x="30" y="40" font-family="'Fira Code', monospace" font-size="14" font-weight="700" fill="#f8fafc">ACCURACY COMPARISON ON REASONING BENCHMARKS</text>

      <!-- Bar charts -->
      <g transform="translate(50, 90)">
        <text x="0" y="30" font-family="'Fira Code', monospace" font-size="12" fill="#38bdf8">GSM8K (Math Reasoning)</text>
        <rect x="250" y="10" width="300" height="24" rx="4" fill="#334155" />
        <rect x="250" y="10" width="225" height="24" rx="4" fill="#64748b" />
        <text x="485" y="27" font-family="'Fira Code', monospace" font-size="11" fill="#fff">Raw: 75%</text>
        <rect x="570" y="10" width="282" height="24" rx="4" fill="#10b981" />
        <text x="860" y="27" font-family="'Fira Code', monospace" font-size="11" fill="#10b981">G1 Thinking: 94.2%</text>

        <text x="0" y="100" font-family="'Fira Code', monospace" font-size="12" fill="#38bdf8">HumanEval (Code Logic)</text>
        <rect x="250" y="80" width="300" height="24" rx="4" fill="#334155" />
        <rect x="250" y="80" width="210" height="24" rx="4" fill="#64748b" />
        <text x="470" y="97" font-family="'Fira Code', monospace" font-size="11" fill="#fff">Raw: 70%</text>
        <rect x="570" y="80" width="265" height="24" rx="4" fill="#10b981" />
        <text x="845" y="97" font-family="'Fira Code', monospace" font-size="11" fill="#10b981">G1 Thinking: 88.5%</text>

        <text x="0" y="170" font-family="'Fira Code', monospace" font-size="12" fill="#38bdf8">LogicGrid Puzzles</text>
        <rect x="250" y="150" width="300" height="24" rx="4" fill="#334155" />
        <rect x="250" y="150" width="180" height="24" rx="4" fill="#64748b" />
        <text x="440" y="167" font-family="'Fira Code', monospace" font-size="11" fill="#fff">Raw: 60%</text>
        <rect x="570" y="150" width="270" height="24" rx="4" fill="#10b981" />
        <text x="850" y="167" font-family="'Fira Code', monospace" font-size="11" fill="#10b981">G1 Thinking: 90.0%</text>
      </g>
    </g>
    
  </g>

  <!-- Subtle CRT Scanline overlay effect -->
  <line x1="24" y1="24" x2="1256" y2="24" stroke="rgba(255,255,255,0.2)" stroke-width="1" />
</svg>